# xmcd
#
# Track frame offsets:
#  150
#  16437
#  33517
#
# Disc length: 677 seconds
#
# Revision: 0
# Processed by: cddbd v1.5.1PL2 Copyright (c) Steve Scherf et al.
# Submitted via: Collectorz.com_Music_Collector 6.11
#
DISCID=1c02a303
DTITLE=R.O.O.O.M - First Thing
DYEAR=2006
DGENRE=Pop
TTITLE0=First Thing
TTITLE1=First Thing (UK Mix)
TTITLE2=First Thing (Scooorpio's Club Mix)
EXTD=
EXTT0=
EXTT1=
EXTT2=
PLAYORDER=
